<svg width="106" height="105" viewBox="0 0 106 105" fill="none" xmlns="http://www.w3.org/2000/svg">
<path d="M12.67 68L4.97 26.84L1.12 25.93V19.63H18.2L19.39 25.16L14.49 25.86L20.23 58.2L31.01 20.54H40.95L51.38 58.97L56.84 25.86L50.96 24.95L51.73 19.63H69.16V25.79L63.7 27.19L56 68H44.24L34.37 32.51L24.92 68H12.67ZM85.7746 68.28C83.0679 68.28 80.4779 67.9533 78.0046 67.3C75.5313 66.6 73.3613 65.8767 71.4946 65.13L72.8946 51.62L78.7746 52.11L79.3346 59.88C79.9413 60.02 80.7579 60.23 81.7846 60.51C82.8579 60.79 84.0479 60.93 85.3546 60.93C86.8479 60.93 88.2013 60.7433 89.4146 60.37C90.6746 59.95 91.6779 59.32 92.4246 58.48C93.2179 57.64 93.6146 56.5433 93.6146 55.19C93.6146 53.93 93.2879 52.9033 92.6346 52.11C91.9813 51.27 91.0013 50.5 89.6946 49.8C88.4346 49.0533 86.8013 48.2367 84.7946 47.35C82.9746 46.51 81.2946 45.67 79.7546 44.83C78.2146 43.9433 76.8613 42.9633 75.6946 41.89C74.5746 40.8167 73.6879 39.5567 73.0346 38.11C72.3813 36.6167 72.0546 34.82 72.0546 32.72C72.0546 30.0133 72.7779 27.68 74.2246 25.72C75.7179 23.76 77.7013 22.2433 80.1746 21.17C82.6946 20.0967 85.4479 19.56 88.4346 19.56C90.8613 19.56 93.2179 19.7467 95.5046 20.12C97.8379 20.4933 99.9146 20.9367 101.735 21.45L102.785 34.75H96.9046L93.4746 27.33C92.8679 27.2367 92.1213 27.1433 91.2346 27.05C90.3479 26.9567 89.5079 26.91 88.7146 26.91C87.0813 26.91 85.7279 27.1667 84.6546 27.68C83.6279 28.1467 82.8579 28.7767 82.3446 29.57C81.8313 30.3633 81.5746 31.25 81.5746 32.23C81.5746 33.1633 81.8546 34.0033 82.4146 34.75C83.0213 35.45 83.7913 36.1033 84.7246 36.71C85.7046 37.27 86.7313 37.8067 87.8046 38.32C88.9246 38.7867 89.9979 39.2767 91.0246 39.79C93.7779 41.0967 96.0413 42.4033 97.8146 43.71C99.6346 45.0167 100.988 46.4867 101.875 48.12C102.761 49.7533 103.205 51.69 103.205 53.93C103.205 56.5433 102.691 58.76 101.665 60.58C100.685 62.4 99.3546 63.8933 97.6746 65.06C95.9946 66.18 94.1046 66.9967 92.0046 67.51C89.9513 68.0233 87.8746 68.28 85.7746 68.28Z" fill="white"/>
<path d="M20.715 95.14C19.8283 95.14 18.93 94.9883 18.02 94.685C17.11 94.3583 16.2817 93.8567 15.535 93.18C14.7883 92.5033 14.1817 91.6517 13.715 90.625C13.2717 89.575 13.05 88.315 13.05 86.845C13.05 85.095 13.2833 83.6367 13.75 82.47C14.2167 81.3033 14.8233 80.3817 15.57 79.705C16.3167 79.0283 17.1333 78.55 18.02 78.27C18.93 77.9667 19.8167 77.815 20.68 77.815C21.7067 77.815 22.57 77.955 23.27 78.235C23.9933 78.4917 24.5767 78.8067 25.02 79.18C25.4867 79.5533 25.8367 79.915 26.07 80.265C26.3033 80.5917 26.455 80.8133 26.525 80.93L22.29 83.205L20.785 81.105H20.505C20.0617 81.105 19.6417 81.245 19.245 81.525C18.8717 81.7817 18.545 82.1667 18.265 82.68C17.985 83.17 17.7633 83.7533 17.6 84.43C17.46 85.1067 17.39 85.8533 17.39 86.67C17.39 87.58 17.53 88.4317 17.81 89.225C18.09 89.995 18.5217 90.625 19.105 91.115C19.7117 91.5817 20.4933 91.815 21.45 91.815C22.1267 91.815 22.7217 91.71 23.235 91.5C23.7483 91.29 24.18 91.0567 24.53 90.8C24.9033 90.52 25.1833 90.2983 25.37 90.135L26.28 93.18C25.65 93.8333 24.845 94.3233 23.865 94.65C22.885 94.9767 21.835 95.14 20.715 95.14ZM40.1632 95.14C39.0899 95.14 38.1682 94.9417 37.3982 94.545C36.6516 94.125 36.0799 93.565 35.6832 92.865C35.2866 92.1417 35.0882 91.3483 35.0882 90.485C35.0882 89.4583 35.3449 88.595 35.8582 87.895C36.3949 87.195 37.0832 86.635 37.9232 86.215C38.7866 85.7717 39.7199 85.4567 40.7232 85.27C41.7266 85.06 42.7066 84.9433 43.6632 84.92V82.155C43.6632 81.8983 43.4766 81.665 43.1032 81.455C42.7532 81.2217 42.1816 81.105 41.3882 81.105C41.2016 81.105 41.0149 81.1167 40.8282 81.14C40.6416 81.14 40.4899 81.1633 40.3732 81.21L39.4632 83.8L35.1232 81.91C35.6132 80.8133 36.4532 79.8567 37.6432 79.04C38.8332 78.2233 40.2449 77.815 41.8782 77.815C42.8816 77.815 43.8382 77.99 44.7482 78.34C45.6582 78.69 46.4049 79.2733 46.9882 80.09C47.5949 80.9067 47.8982 82.0267 47.8982 83.45V91.325C47.8982 91.6283 47.9566 91.8383 48.0732 91.955C48.2132 92.0483 48.3649 92.095 48.5282 92.095C48.6449 92.095 48.7499 92.0833 48.8432 92.06C48.9599 92.0367 49.0299 92.025 49.0532 92.025L49.6832 93.985C49.5199 94.125 49.1932 94.3583 48.7032 94.685C48.2132 94.9883 47.6066 95.14 46.8832 95.14C46.1832 95.14 45.5999 94.9883 45.1332 94.685C44.6899 94.3817 44.3399 93.9733 44.0832 93.46C43.6166 93.9267 43.0449 94.3233 42.3682 94.65C41.7149 94.9767 40.9799 95.14 40.1632 95.14ZM41.0032 91.78C41.6566 91.78 42.2166 91.605 42.6832 91.255C43.1732 90.8817 43.4999 90.5083 43.6632 90.135V87.86C43.2199 87.8833 42.7532 87.93 42.2632 88C41.7732 88.07 41.3066 88.1867 40.8632 88.35C40.4432 88.5133 40.0932 88.7467 39.8132 89.05C39.5566 89.33 39.4282 89.7033 39.4282 90.17C39.4282 90.5667 39.5566 90.94 39.8132 91.29C40.0699 91.6167 40.4666 91.78 41.0032 91.78ZM58.8144 95L58.2894 92.76L60.3894 92.2V80.965L58.6044 81.105L58.2194 78.725L63.0844 77.815L64.2744 79.635C64.7411 79.0517 65.3011 78.6083 65.9544 78.305C66.6077 77.9783 67.2377 77.815 67.8444 77.815C68.8711 77.815 69.7927 78.06 70.6094 78.55C71.4494 79.0167 72.0327 79.7867 72.3594 80.86L68.1244 83.065L67.0744 81.315C66.7944 81.315 66.4561 81.4317 66.0594 81.665C65.6861 81.8983 65.3477 82.2833 65.0444 82.82C64.7644 83.3567 64.6244 84.08 64.6244 84.99V91.535L68.8594 92.76L68.8944 95H58.8144ZM86.3501 95.105C85.2535 95.105 84.2501 94.9067 83.3401 94.51C82.4535 94.1133 81.7068 93.6117 81.1001 93.005C80.5168 92.375 80.0968 91.7567 79.8401 91.15L84.3201 89.435L85.2301 91.71C85.3701 91.7333 85.5568 91.7567 85.7901 91.78C86.0468 91.8033 86.3035 91.815 86.5601 91.815C86.7935 91.815 87.0385 91.7683 87.2951 91.675C87.5751 91.5583 87.8085 91.3833 87.9951 91.15C88.2051 90.9167 88.3101 90.6017 88.3101 90.205C88.3101 89.715 88.1001 89.3417 87.6801 89.085C87.2835 88.805 86.8285 88.5833 86.3151 88.42C85.8018 88.2567 85.3818 88.0933 85.0551 87.93C83.4218 87.2767 82.2785 86.53 81.6251 85.69C80.9718 84.8267 80.6451 83.8933 80.6451 82.89C80.6451 81.9567 80.9135 81.105 81.4501 80.335C81.9868 79.565 82.7101 78.9583 83.6201 78.515C84.5301 78.0483 85.5568 77.815 86.7001 77.815C87.8435 77.815 88.8118 78.0017 89.6051 78.375C90.3985 78.7483 91.0401 79.2033 91.5301 79.74C92.0435 80.2767 92.4168 80.79 92.6501 81.28L88.2051 83.065L87.3651 81.28C87.3651 81.28 87.2835 81.2567 87.1201 81.21C86.9801 81.14 86.7818 81.105 86.5251 81.105C86.1751 81.105 85.8835 81.1633 85.6501 81.28C85.4401 81.3733 85.2768 81.525 85.1601 81.735C85.0435 81.9217 84.9851 82.155 84.9851 82.435C84.9851 82.8083 85.1951 83.135 85.6151 83.415C86.0585 83.695 86.6068 83.975 87.2601 84.255C87.9368 84.5117 88.6135 84.8267 89.2901 85.2C90.1535 85.6433 90.9118 86.2267 91.5651 86.95C92.2418 87.65 92.5801 88.5833 92.5801 89.75C92.5801 90.8933 92.2885 91.8733 91.7051 92.69C91.1218 93.4833 90.3518 94.09 89.3951 94.51C88.4618 94.9067 87.4468 95.105 86.3501 95.105Z" fill="white"/>
</svg>
